<?xml version="1.0" encoding="utf-8"?>
<svg xmlns="http://www.w3.org/2000/svg" viewBox="143.863 97.082 77.967 80.483">
  <path d="M 194.357 147.065 C 191.506 146.98 189.064 149.096 188.742 151.932 C 188.729 151.987 188.742 152.044 188.775 152.086 C 188.81 152.13 188.863 152.154 188.918 152.152 L 199.818 152.152 C 199.869 152.152 199.92 152.132 199.953 152.093 C 199.986 152.055 200.001 152.005 199.994 151.954 C 199.772 149.056 197.26 146.876 194.357 147.065 Z" fill="#01a71c" style="stroke-width: 2.202px;"/>
  <path d="M 217.721 110.512 L 194.6 136.474 C 194.467 136.619 194.28 136.701 194.082 136.701 C 193.886 136.701 193.699 136.619 193.565 136.474 L 181.762 124.297 C 181.557 124.039 181.557 123.673 181.762 123.416 L 185.659 118.417 C 185.794 118.232 186.005 118.124 186.232 118.124 C 186.461 118.124 186.672 118.232 186.804 118.417 L 193.41 125.728 C 193.545 125.889 193.743 125.979 193.95 125.979 C 194.159 125.979 194.357 125.889 194.489 125.728 L 212.898 100.493 C 213.004 100.341 213.017 100.145 212.936 99.98 C 212.852 99.814 212.687 99.709 212.502 99.7 L 147.674 99.7 C 147.371 99.7 147.124 99.947 147.124 100.25 L 147.124 174.018 C 147.124 174.322 147.371 174.569 147.674 174.569 L 218.139 174.569 C 218.443 174.569 218.69 174.322 218.69 174.018 L 218.69 110.842 C 218.782 110.576 218.639 110.285 218.37 110.193 C 218.104 110.102 217.813 110.245 217.721 110.512 Z M 167.074 166.355 C 162.45 166.589 157.914 165.01 154.435 161.951 C 154.208 161.693 154.208 161.306 154.435 161.048 L 157.187 157.195 C 157.28 157.036 157.432 156.919 157.61 156.875 C 157.788 156.829 157.978 156.858 158.134 156.952 C 160.649 159.284 163.954 160.575 167.383 160.564 C 170.994 160.564 172.755 158.89 172.755 157.129 C 172.755 151.668 154.963 155.411 154.963 143.784 C 154.963 138.654 159.367 134.382 166.678 134.382 C 170.875 134.232 174.982 135.611 178.238 138.257 C 178.494 138.522 178.494 138.94 178.238 139.204 L 175.53 142.97 C 175.418 143.122 175.248 143.218 175.059 143.241 C 174.872 143.26 174.684 143.203 174.539 143.08 C 172.137 141.171 169.153 140.144 166.083 140.173 C 163.265 140.173 161.679 141.428 161.679 143.278 C 161.679 148.188 179.428 144.907 179.428 156.49 C 179.428 162.083 175.398 166.355 167.052 166.355 L 167.074 166.355 Z M 205.874 155.631 C 205.88 155.796 205.819 155.957 205.702 156.074 C 205.583 156.191 205.425 156.254 205.257 156.248 L 188.962 156.248 C 188.909 156.254 188.863 156.281 188.83 156.321 C 188.795 156.362 188.782 156.415 188.786 156.468 C 189.334 159.624 192.202 161.841 195.392 161.577 C 197.414 161.535 199.376 160.89 201.029 159.727 C 201.162 159.619 201.331 159.571 201.501 159.595 C 201.668 159.621 201.818 159.716 201.91 159.859 L 203.892 162.744 C 204.064 163.01 204.007 163.36 203.76 163.559 C 201.144 165.468 197.971 166.459 194.732 166.377 C 191.462 166.56 188.266 165.355 185.93 163.056 C 183.596 160.76 182.339 157.584 182.466 154.31 C 182.376 151.117 183.596 148.028 185.842 145.755 C 188.088 143.485 191.164 142.232 194.357 142.287 C 201.206 142.287 205.852 147.418 205.852 154.927 L 205.874 155.631 Z" fill="#01a71c" style="stroke-width: 2.202px;"/>
</svg>